<?xml version="1.0" standalone="no"?>
<!DOCTYPE svg PUBLIC "-//W3C//DTD SVG 20010904//EN"
 "http://www.w3.org/TR/2001/REC-SVG-20010904/DTD/svg10.dtd">
<svg version="1.0" xmlns="http://www.w3.org/2000/svg"
 width="1024.000000pt" height="1024.000000pt" viewBox="0 0 1024.000000 1024.000000"
 preserveAspectRatio="xMidYMid meet">
<metadata>
Created by potrace 1.16, written by Peter Selinger 2001-2019
</metadata>
<g transform="translate(0.000000,1024.000000) scale(0.100000,-0.100000)"
fill="#000000" stroke="none">
<path d="M4795 8604 c-1077 -47 -1728 -170 -2315 -438 -346 -159 -636 -361
-885 -617 -455 -468 -685 -1005 -787 -1829 -18 -144 -18 -856 0 -1000 81 -653
285 -1168 638 -1610 94 -118 309 -331 431 -428 529 -419 1215 -675 2097 -782
386 -47 544 -54 1141 -55 587 0 726 6 1090 46 522 58 920 150 1315 306 404
159 749 377 1034 653 125 122 225 236 322 370 313 434 479 896 551 1533 22
194 25 770 5 952 -90 813 -344 1398 -806 1861 -155 154 -252 233 -442 360
-568 378 -1304 585 -2334 659 -202 14 -879 27 -1055 19z m650 -154 c1460 -49
2395 -341 3021 -943 483 -464 736 -1038 815 -1847 18 -179 15 -687 -5 -882
-79 -775 -337 -1339 -828 -1813 -532 -514 -1270 -811 -2288 -924 -315 -35
-441 -42 -870 -48 -1244 -17 -2115 135 -2815 490 -292 149 -531 323 -750 548
-373 383 -614 853 -724 1414 -48 248 -56 350 -56 755 0 253 5 426 13 505 51
461 173 881 348 1202 357 656 1023 1131 1890 1347 423 106 974 175 1554 196
307 10 379 10 695 0z"/>
<path d="M2308 7439 c-12 -7 -18 -22 -18 -49 l0 -40 -68 0 c-84 0 -112 -16
-112 -65 0 -53 20 -65 106 -65 l74 0 0 -175 0 -175 -110 0 c-98 0 -110 -2
-120 -19 -16 -31 -12 -56 14 -80 21 -20 32 -22 100 -19 42 2 76 1 76 -2 0 -19
-68 -82 -119 -109 -65 -34 -70 -45 -46 -91 32 -62 89 -63 171 -5 46 33 49 34
56 15 7 -18 17 -20 118 -20 l111 0 -3 -37 -3 -38 -186 -5 c-202 -5 -219 -10
-219 -60 0 -61 -8 -60 482 -60 418 0 446 1 461 18 21 23 22 51 1 80 -15 21
-20 22 -200 22 l-184 0 0 40 0 40 98 0 c102 0 122 7 122 43 0 17 3 16 31 -8
47 -39 104 -65 143 -65 29 0 38 6 56 35 12 19 20 42 18 52 -2 9 -28 29 -59 45
-30 16 -73 46 -94 68 l-39 40 75 0 c90 0 119 15 119 64 0 50 -13 56 -122 56
l-98 0 0 175 0 175 68 0 c81 0 105 17 100 71 -4 43 -34 59 -110 59 l-58 0 0
34 c0 47 -22 66 -76 66 -66 0 -84 -13 -84 -60 l0 -40 -160 0 -160 0 0 34 c0
49 -21 66 -83 66 -29 0 -60 -5 -69 -11z m470 -241 c-3 -22 -8 -23 -113 -26
-153 -4 -215 4 -215 29 0 18 9 19 166 19 l165 0 -3 -22z m2 -153 l0 -25 -160
0 -160 0 0 25 0 25 160 0 160 0 0 -25z m-12 -147 c-3 -23 -6 -23 -152 -26
-149 -3 -176 3 -176 34 0 11 32 14 166 14 l165 0 -3 -22z m37 -175 c10 -16 25
-38 33 -50 l14 -23 -81 0 -81 0 0 30 c0 37 -23 50 -89 50 -55 0 -62 -6 -63
-50 l-1 -30 -83 0 -82 0 31 49 32 50 176 0 177 1 17 -27z"/>
<path d="M6642 7428 c-43 -12 -75 -61 -68 -107 14 -90 129 -120 198 -51 32 32
36 66 13 110 -24 46 -81 65 -143 48z"/>
<path d="M4640 7384 c-184 -49 -276 -251 -180 -397 38 -57 116 -110 261 -180
162 -78 202 -132 147 -202 -58 -75 -195 -72 -334 7 -43 24 -57 27 -73 18 -37
-19 -58 -93 -39 -135 16 -35 114 -82 215 -102 148 -31 296 7 377 97 51 57 69
103 69 181 0 130 -67 206 -275 310 -146 73 -188 108 -188 155 0 100 154 121
301 43 56 -30 60 -31 84 -15 40 26 58 61 51 100 -7 38 -24 55 -85 86 -93 46
-230 61 -331 34z"/>
<path d="M3346 7348 c-19 -27 -21 -88 -3 -111 10 -14 37 -17 192 -19 l180 -3
3 -117 3 -118 -219 0 c-251 0 -252 0 -252 -82 0 -76 4 -77 249 -80 l213 -3 -1
-160 c-1 -88 -6 -164 -11 -169 -5 -5 -44 -9 -87 -9 -43 1 -86 -1 -95 -4 -25
-6 -23 -49 5 -103 l22 -45 107 1 c118 2 152 14 192 67 19 26 21 44 24 228 l4
199 208 0 c204 0 209 0 224 22 23 32 20 94 -4 118 -19 19 -33 20 -225 20
l-206 0 3 118 3 117 178 3 178 2 9 26 c14 37 12 76 -6 102 l-15 22 -429 0
-429 0 -15 -22z"/>
<path d="M5503 7160 c-51 -11 -80 -25 -115 -58 l-27 -25 -10 27 c-12 29 -46
46 -95 46 -67 0 -63 25 -69 -512 -6 -542 -10 -511 62 -523 45 -7 77 0 104 23
15 13 17 35 17 168 l0 154 43 -30 c106 -74 291 -51 378 48 71 81 104 197 96
337 -11 196 -102 314 -267 345 -59 11 -58 11 -117 0z m122 -174 c58 -38 90
-183 66 -298 -9 -41 -22 -68 -50 -99 -36 -41 -41 -43 -102 -46 -51 -3 -70 0
-96 16 -52 33 -66 64 -71 156 -9 164 16 240 88 278 43 22 126 19 165 -7z"/>
<path d="M6337 7146 c-40 -15 -62 -31 -108 -81 -28 -29 -28 -29 -29 -7 0 31
-25 78 -45 86 -26 10 -94 7 -116 -4 -18 -10 -19 -25 -19 -365 l0 -355 25 -16
c31 -20 107 -14 134 10 17 16 19 38 23 224 5 231 11 256 72 310 36 31 64 40
146 44 43 3 46 5 59 44 35 100 -30 150 -142 110z"/>
<path d="M7223 7150 c-53 -11 -100 -35 -116 -60 -16 -27 -23 -25 -30 9 -5 24
-14 32 -43 40 -38 11 -90 5 -111 -12 -10 -7 -13 -91 -13 -358 l0 -348 22 -15
c27 -19 93 -21 128 -3 l25 13 5 234 c4 197 8 240 22 267 24 44 60 69 108 77
49 8 84 -7 114 -47 20 -26 21 -45 26 -272 6 -284 4 -280 94 -280 39 0 60 5 75
19 20 18 21 28 21 241 0 230 -9 314 -40 376 -27 52 -82 96 -142 114 -56 16
-81 17 -145 5z"/>
<path d="M6630 7133 l-35 -18 -3 -341 c-2 -334 -2 -341 19 -359 28 -27 120
-27 148 -1 20 19 21 28 21 356 0 378 3 362 -75 374 -29 5 -50 1 -75 -11z"/>
<path d="M7862 7131 c-144 -50 -212 -183 -200 -392 12 -206 116 -319 294 -319
67 0 131 23 173 63 l33 32 -6 -60 c-9 -72 -41 -142 -79 -169 -41 -30 -166 -29
-266 2 -87 28 -100 22 -108 -51 -5 -39 -2 -49 18 -69 34 -34 131 -53 269 -53
105 0 120 3 171 28 66 32 118 80 145 133 18 36 19 68 22 441 l3 402 -22 12
c-26 13 -103 7 -124 -11 -8 -7 -15 -26 -15 -42 l0 -30 -45 40 c-71 62 -163 78
-263 43z m234 -171 c41 -38 54 -80 54 -172 0 -158 -29 -200 -139 -206 -64 -4
-70 -2 -103 26 -41 36 -58 86 -58 169 0 84 24 156 62 188 29 24 38 27 95 23
49 -3 68 -9 89 -28z"/>
<path d="M2064 6019 c-18 -20 -19 -45 -22 -503 -2 -264 0 -491 3 -503 3 -13
19 -30 37 -39 27 -14 64 -16 282 -11 227 4 257 6 313 26 112 40 174 123 181
242 8 126 -39 221 -132 268 l-47 23 45 39 c62 54 89 115 89 198 1 144 -88 241
-248 270 -32 6 -154 11 -270 11 -203 0 -213 -1 -231 -21z m465 -162 c51 -18
75 -57 75 -122 0 -63 -21 -100 -75 -127 -27 -14 -60 -18 -156 -18 l-123 0 0
133 c0 74 3 137 7 140 11 12 236 6 272 -6z m58 -453 c82 -60 82 -188 0 -248
-25 -19 -46 -21 -183 -25 l-154 -3 0 152 0 152 154 -4 c137 -3 158 -5 183 -24z"/>
<path d="M8065 5958 c-27 -21 -27 -22 -23 -123 l3 -103 -64 -10 c-35 -6 -69
-16 -75 -22 -15 -15 -11 -89 5 -105 11 -10 25 -11 59 -5 88 18 91 16 88 -37
l-3 -47 -75 -14 c-41 -7 -80 -18 -87 -24 -17 -14 -17 -69 1 -93 13 -17 18 -18
87 -6 41 8 79 15 84 17 6 2 18 -36 27 -84 10 -49 20 -95 23 -104 6 -16 -69
-58 -207 -117 -40 -17 -48 -24 -48 -46 0 -28 48 -85 72 -85 7 0 63 24 123 54
61 30 110 53 111 53 0 -1 15 -24 33 -50 41 -60 83 -87 137 -87 32 0 46 6 73
34 45 46 64 102 45 137 -12 25 -33 39 -55 39 -5 0 -19 -16 -30 -35 -24 -40
-34 -37 -70 21 l-21 34 34 27 c133 110 151 143 102 182 -40 32 -63 26 -121
-31 -37 -37 -54 -47 -58 -37 -11 31 -23 114 -17 120 4 3 50 13 102 22 99 18
120 30 120 73 0 12 -8 32 -18 44 -17 21 -18 21 -107 6 -130 -23 -127 -24 -123
26 l3 43 95 15 c86 14 96 17 108 42 14 29 8 71 -13 88 -9 8 -39 7 -107 -3
l-93 -13 -6 25 c-4 14 -7 61 -8 103 -1 65 -4 79 -20 88 -30 15 -56 12 -86 -12z"/>
<path d="M4848 5959 c-30 -11 -34 -31 -31 -156 l1 -53 -58 0 c-49 0 -61 -4
-74 -22 -19 -27 -20 -67 -4 -103 12 -27 27 -33 91 -37 l38 -3 4 -220 c4 -230
10 -268 56 -341 43 -71 149 -106 252 -84 42 8 63 19 82 41 30 37 34 96 7 129
-16 20 -21 21 -64 10 -26 -7 -59 -9 -73 -6 -48 12 -55 46 -55 266 l0 200 74 0
c97 0 126 20 126 86 0 78 -8 84 -110 84 l-90 0 0 95 c0 85 -2 95 -21 105 -30
16 -119 21 -151 9z"/>
<path d="M5561 5933 c-13 -11 -28 -44 -39 -88 l-17 -70 -50 -3 c-27 -2 -55 -8
-62 -14 -10 -8 -13 -95 -13 -394 0 -369 1 -384 19 -394 27 -14 84 -13 99 2 7
7 12 22 12 35 0 23 1 23 129 23 187 0 173 -24 169 291 l-3 256 27 -29 c14 -15
35 -28 46 -28 25 0 60 41 86 99 l20 42 110 -7 c61 -3 112 -7 113 -8 4 -4 -17
-348 -27 -440 -13 -128 -20 -135 -127 -138 l-88 -3 2 -40 c2 -22 11 -51 22
-65 17 -23 24 -25 102 -24 152 3 189 38 208 195 17 134 42 560 36 590 -11 51
-31 59 -168 66 -70 3 -127 7 -127 8 0 1 7 23 16 49 16 46 16 48 -7 72 -27 29
-79 32 -101 7 -9 -10 -30 -61 -47 -114 -26 -78 -81 -189 -93 -189 -2 0 -1 24
0 54 6 84 -5 96 -88 96 -39 0 -70 3 -70 7 0 4 8 34 17 66 l16 60 -27 24 c-32
27 -66 30 -95 6z m112 -371 c-1 -45 -4 -82 -7 -82 -3 0 -39 0 -78 0 l-73 0 1
78 c0 42 1 81 2 85 1 4 37 7 79 5 l78 -3 -2 -83z m0 -305 l2 -97 -80 0 -80 0
0 100 -1 101 79 -3 78 -3 2 -98z"/>
<path d="M6752 5938 c-6 -7 -16 -38 -24 -68 l-13 -55 -137 -3 c-153 -3 -159
-6 -160 -71 -1 -64 9 -70 131 -73 l108 -3 -41 -70 c-23 -39 -81 -110 -135
-165 l-94 -95 21 -35 c30 -52 62 -60 106 -26 l36 27 0 -173 c0 -122 4 -178 12
-186 7 -7 30 -12 53 -12 23 0 46 5 53 12 9 9 12 79 12 255 l0 243 34 52 c18
29 47 81 65 116 l31 62 278 0 c203 0 281 3 290 12 16 16 16 100 0 116 -9 9
-82 12 -266 12 l-254 0 5 23 c20 83 20 93 -8 105 -34 16 -90 15 -103 0z"/>
<path d="M8223 5935 c-41 -29 -36 -54 20 -106 29 -27 56 -49 60 -49 19 0 67
32 78 51 14 28 -11 65 -67 96 -46 27 -62 28 -91 8z"/>
<path d="M7658 5923 c-8 -10 -36 -61 -60 -114 -25 -53 -65 -125 -88 -159 -40
-59 -42 -65 -32 -99 21 -67 29 -72 100 -63 34 5 62 6 62 3 0 -4 -30 -36 -66
-71 -87 -87 -97 -105 -81 -161 10 -33 18 -45 35 -47 25 -4 286 73 320 94 23
15 30 56 13 83 -8 12 -19 12 -73 2 -34 -7 -70 -14 -79 -17 -10 -3 18 48 67
121 46 69 84 134 84 145 0 26 -48 80 -71 80 -14 0 -25 -13 -38 -44 -17 -39
-23 -44 -58 -48 -21 -3 -40 -4 -42 -2 -2 2 10 25 27 51 43 67 92 174 92 200 0
26 -44 63 -75 63 -12 0 -29 -8 -37 -17z"/>
<path d="M3243 5780 c-68 -14 -151 -60 -194 -108 -149 -161 -141 -487 17 -632
70 -65 140 -92 249 -98 194 -10 331 71 397 236 19 48 22 76 22 182 0 106 -3
134 -22 181 -43 108 -115 181 -220 222 -53 21 -187 30 -249 17z m139 -170 c82
-23 134 -100 145 -215 15 -162 -65 -284 -186 -285 -55 0 -118 36 -146 83 -53
91 -52 258 1 339 33 52 67 72 144 87 3 0 22 -4 42 -9z"/>
<path d="M4120 5774 c-177 -48 -280 -201 -280 -418 0 -173 86 -320 223 -381
122 -55 295 -42 405 30 102 68 152 170 160 331 5 107 -9 177 -50 257 -78 153
-273 230 -458 181z m211 -187 c55 -37 81 -95 86 -196 6 -95 -5 -151 -39 -201
-40 -58 -72 -75 -143 -75 -71 0 -103 17 -143 75 -33 50 -45 106 -39 195 6 109
41 174 112 213 37 21 128 14 166 -11z"/>
<path d="M7028 5621 c-33 -16 -33 -17 -36 -93 l-3 -78 -99 0 c-108 0 -120 -6
-120 -63 0 -44 31 -59 130 -65 l90 -5 0 -113 0 -114 -104 0 c-118 0 -136 -8
-136 -65 0 -69 -19 -65 310 -65 330 0 324 -1 324 65 0 59 -13 65 -135 65
l-109 0 0 115 0 115 63 0 c70 0 127 13 139 32 12 20 10 72 -4 86 -8 8 -46 12
-105 12 l-93 0 0 73 c0 58 -4 77 -17 89 -28 24 -60 27 -95 9z"/>
<path d="M5915 5495 c-14 -13 -25 -31 -25 -39 0 -9 34 -65 76 -126 66 -96 79
-110 104 -110 15 0 37 8 48 18 41 35 37 54 -33 159 -37 54 -74 104 -83 111
-25 19 -61 14 -87 -13z"/>
<path d="M7657 5164 c-82 -24 -156 -49 -164 -56 -11 -8 -14 -24 -10 -50 10
-77 41 -84 164 -39 186 69 236 101 226 143 -9 34 -23 48 -47 47 -11 -1 -88
-21 -169 -45z"/>
<path d="M5592 4658 c-7 -7 -12 -36 -12 -65 l0 -53 -198 0 c-214 0 -222 -2
-222 -53 0 -64 7 -67 158 -67 l137 -1 -55 -50 c-30 -28 -93 -69 -140 -92 -101
-50 -112 -73 -61 -129 l29 -33 47 23 c100 49 205 127 273 205 l32 38 0 -75 c0
-66 3 -77 21 -87 23 -12 85 -4 107 13 7 7 12 38 12 86 l0 76 51 -57 c74 -83
271 -207 329 -207 33 0 79 71 62 96 -4 5 -32 20 -62 33 -98 41 -220 126 -220
153 0 4 60 9 132 10 l133 3 9 28 c6 17 6 37 0 55 l-9 27 -213 3 -212 2 0 53
c0 29 -5 58 -12 65 -16 16 -100 16 -116 0z"/>
<path d="M7005 4655 c-90 -21 -288 -43 -495 -56 -202 -12 -210 -15 -210 -74 0
-63 12 -68 149 -63 l122 5 -23 -24 c-13 -14 -53 -43 -90 -64 -65 -38 -68 -42
-68 -77 0 -61 22 -82 83 -81 29 0 77 4 107 8 30 5 57 7 59 5 7 -7 -164 -85
-231 -105 -74 -23 -98 -52 -79 -100 18 -49 26 -50 181 -34 78 8 158 15 176 15
l35 0 -3 -117 -3 -118 -60 -3 c-97 -4 -105 -7 -105 -47 0 -21 9 -44 24 -62 23
-26 29 -28 101 -26 84 2 131 21 152 64 9 16 13 75 13 175 l0 151 61 7 c131 13
149 10 186 -34 41 -47 78 -53 111 -17 41 43 30 72 -72 187 -75 85 -98 106
-123 108 -24 2 -36 -3 -52 -24 -27 -34 -26 -46 4 -82 l24 -29 -122 -7 c-67 -4
-138 -9 -157 -12 -29 -5 -19 3 54 46 84 48 278 188 290 209 18 28 -45 91 -89
91 -10 0 -46 -27 -82 -60 -61 -55 -70 -60 -112 -60 -25 0 -71 -3 -101 -6 l-55
-7 40 36 c23 19 54 54 69 76 21 30 36 41 55 41 66 1 354 49 376 64 21 14 23
19 14 45 -22 61 -63 76 -154 56z"/>
<path d="M1926 4629 c-14 -17 -26 -36 -26 -42 0 -18 155 -167 174 -167 22 0
76 53 76 74 0 35 -143 166 -181 166 -9 0 -29 -14 -43 -31z"/>
<path d="M3390 4650 c-8 -5 -22 -42 -30 -82 l-15 -73 -35 -2 c-34 -3 -36 -1
-67 65 -39 81 -67 101 -113 77 -47 -24 -51 -43 -24 -97 l24 -48 -48 0 c-57 0
-72 -12 -72 -60 0 -56 10 -60 152 -60 70 0 128 -3 128 -6 0 -3 -8 -19 -17 -35
l-17 -29 -147 0 c-129 0 -148 -2 -162 -18 -21 -23 -22 -51 -1 -80 14 -20 23
-22 110 -22 52 0 94 -4 94 -8 0 -14 -73 -69 -144 -107 -57 -32 -66 -41 -66
-65 0 -36 35 -80 64 -80 12 0 48 15 79 34 l57 35 0 -132 c0 -113 3 -137 20
-164 37 -62 60 -67 315 -71 313 -5 330 0 354 115 13 65 3 97 -37 111 -36 12
-58 1 -67 -35 -15 -62 -20 -63 -231 -63 -106 0 -199 3 -208 6 -13 5 -16 25
-16 120 l0 114 125 0 125 0 0 -30 c0 -30 0 -30 -59 -30 -70 0 -96 -18 -86 -59
12 -47 33 -61 94 -61 82 1 133 15 159 46 22 25 24 35 20 119 l-3 92 36 -31
c57 -48 161 -106 191 -106 31 0 68 41 68 76 0 20 -13 30 -72 59 -40 19 -95 52
-123 72 l-50 38 102 3 c97 3 104 4 119 28 13 19 15 32 7 57 l-9 32 -252 3
c-139 1 -252 5 -252 8 0 3 7 18 15 34 l15 30 202 2 203 3 9 28 c6 17 6 37 0
55 -8 24 -15 27 -62 30 -28 2 -52 5 -52 8 0 2 11 22 25 44 14 22 25 44 25 49
0 18 -44 41 -76 41 -41 0 -79 -43 -89 -100 l-7 -40 -70 0 c-55 0 -69 3 -65 13
14 37 19 128 7 142 -14 17 -77 20 -100 5z m190 -516 c25 -26 37 -44 27 -40
-10 3 -95 6 -187 6 l-169 0 42 40 42 39 100 1 101 0 44 -46z"/>
<path d="M7576 4653 c-4 -5 -29 -53 -55 -108 -26 -55 -69 -134 -94 -175 -26
-41 -47 -79 -47 -84 0 -5 10 -30 21 -54 l22 -44 65 7 65 7 -31 -39 c-17 -21
-51 -58 -76 -83 -50 -48 -58 -82 -34 -135 11 -25 16 -26 52 -21 22 4 98 23
169 43 142 40 166 57 148 107 -6 14 -17 26 -24 26 -17 0 -115 -18 -139 -26
-10 -3 12 38 56 103 74 109 106 164 106 182 0 5 -12 24 -26 41 -43 50 -62 40
-106 -51 -2 -4 -23 -10 -47 -14 l-44 -7 23 38 c49 81 110 206 110 225 0 44
-85 90 -114 62z"/>
<path d="M8032 4644 c-17 -12 -22 -25 -22 -60 l0 -44 -105 0 c-114 0 -125 -6
-125 -65 0 -56 13 -65 101 -65 79 0 80 0 68 -22 -6 -13 -50 -61 -97 -106 l-84
-84 5 -45 c7 -67 13 -70 114 -49 140 28 315 56 348 56 23 0 34 -7 47 -30 10
-17 24 -33 33 -36 25 -10 64 5 81 31 15 23 14 27 -21 91 -44 78 -123 164 -151
164 -28 0 -64 -28 -64 -49 0 -10 9 -26 20 -36 11 -10 20 -21 20 -25 0 -4 -47
-11 -104 -16 l-104 -9 32 40 c18 22 45 59 60 83 l26 42 134 0 c150 0 166 7
166 71 0 54 -11 59 -141 59 l-117 0 5 44 c5 37 2 46 -18 60 -30 20 -78 21
-107 0z"/>
<path d="M4091 4624 c-12 -15 -21 -35 -21 -44 0 -28 147 -200 171 -200 29 0
69 44 69 76 0 27 -38 81 -109 157 -43 46 -80 49 -110 11z"/>
<path d="M4390 4611 c-6 -12 -10 -135 -10 -329 0 -170 -3 -323 -6 -341 l-6
-31 -26 20 c-33 26 -47 25 -70 -7 l-19 -26 9 69 c5 38 8 126 6 195 -4 165 -7
169 -125 169 -106 0 -123 -8 -123 -61 0 -67 10 -76 76 -71 l57 5 -5 -189 c-4
-178 -6 -193 -31 -247 l-26 -57 31 -35 c16 -19 38 -35 48 -35 21 0 19 -1 110
103 36 41 66 74 68 72 2 -2 -11 -33 -27 -70 -34 -74 -32 -83 21 -111 51 -27
80 -3 113 92 34 100 46 206 52 497 l6 287 198 0 199 0 0 -380 0 -380 -54 0
c-63 0 -82 -15 -71 -57 13 -53 42 -73 106 -73 67 0 99 10 128 41 21 22 21 30
21 476 0 440 -1 454 -20 473 -19 19 -33 20 -320 20 -286 0 -300 -1 -310 -19z"/>
<path d="M2220 4613 c-14 -3 -28 -10 -32 -17 -11 -16 -10 -74 2 -97 10 -18 24
-19 240 -19 l230 0 0 -360 0 -360 -73 0 c-90 0 -112 -13 -102 -58 3 -17 15
-43 26 -57 18 -22 27 -25 90 -25 82 0 141 21 169 60 19 27 20 45 20 459 l0
432 -25 24 -24 25 -248 -1 c-136 -1 -259 -4 -273 -6z"/>
<path d="M4658 4478 c-9 -7 -18 -24 -20 -38 -3 -22 -7 -25 -39 -22 -44 4 -62
-15 -57 -60 3 -32 5 -33 51 -36 l47 -3 0 -44 0 -44 -57 -3 -58 -3 -3 -39 c-2
-24 2 -42 10 -47 7 -5 86 -9 176 -9 l162 0 12 25 c8 19 8 31 0 50 -10 22 -18
25 -67 25 l-55 0 0 45 0 45 43 0 c50 0 67 13 67 51 0 38 -23 53 -70 46 -40 -5
-40 -5 -40 28 0 21 -6 35 -16 39 -26 10 -69 7 -86 -6z"/>
<path d="M1867 4412 c-15 -17 -17 -59 -17 -393 0 -278 3 -378 12 -387 20 -20
85 -15 108 8 19 19 20 33 20 380 l0 361 -25 24 c-29 30 -75 33 -98 7z"/>
<path d="M2126 4308 c-13 -19 -16 -60 -16 -243 0 -159 3 -224 12 -233 7 -7 31
-12 55 -12 46 0 63 16 63 60 0 6 52 10 135 10 129 0 135 1 147 23 9 15 13 72
13 193 -1 145 -3 175 -18 197 l-17 27 -180 0 c-174 0 -179 -1 -194 -22z m284
-197 l0 -99 -87 2 -88 1 -3 98 -3 97 91 0 90 0 0 -99z"/>
<path d="M5347 4162 c-24 -26 -25 -286 -1 -320 15 -22 17 -22 309 -22 l295 0
16 24 c22 35 17 312 -6 326 -9 6 -141 10 -306 10 -269 0 -292 -1 -307 -18z
m493 -97 l0 -25 -182 2 c-181 3 -183 3 -186 26 l-3 22 185 0 186 0 0 -25z m0
-130 l0 -25 -179 0 c-180 0 -199 4 -187 35 4 12 37 15 186 15 l180 0 0 -25z"/>
<path d="M8118 4089 c-16 -9 -18 -25 -17 -122 0 -62 4 -151 8 -199 11 -120 19
-128 127 -128 45 0 94 4 109 10 30 11 54 60 62 129 6 53 -15 89 -56 93 -21 3
-26 -3 -37 -46 -15 -58 -24 -69 -55 -64 -24 3 -24 4 -27 157 -1 93 -7 160 -13
168 -13 15 -76 17 -101 2z"/>
<path d="M7889 4080 c-14 -8 -16 -21 -12 -73 9 -103 -16 -168 -88 -238 -53
-51 -58 -60 -50 -82 15 -38 60 -69 91 -62 34 9 102 77 134 134 48 88 75 288
44 319 -14 14 -96 15 -119 2z"/>
<path d="M4560 4044 c-13 -34 -13 -240 0 -265 15 -27 75 -26 90 1 9 17 23 20
103 22 l92 3 3 119 c2 78 -1 123 -9 132 -9 11 -42 14 -140 14 l-129 0 -10 -26z"/>
<path d="M6962 3937 c-12 -13 -22 -33 -22 -44 0 -35 185 -203 224 -203 45 0
94 58 80 95 -6 15 -112 105 -181 153 -40 28 -74 28 -101 -1z"/>
<path d="M6425 3884 c-146 -119 -136 -109 -124 -141 31 -81 73 -83 160 -8 117
102 139 125 139 143 0 26 -48 72 -74 72 -12 0 -58 -30 -101 -66z"/>
<path d="M7729 3906 c-2 -3 -76 -25 -164 -51 -88 -25 -167 -53 -175 -61 -13
-12 -13 -19 0 -56 23 -65 48 -69 161 -27 150 55 233 100 237 127 6 39 -38 89
-59 68z"/>
<path d="M5166 3754 c-19 -19 -21 -64 -3 -87 11 -16 53 -17 485 -18 361 -1
476 2 487 11 23 19 20 87 -4 100 -13 6 -183 10 -485 10 -409 0 -466 -2 -480
-16z"/>
</g>
</svg>
